<?xml version="1.0" standalone="no"?>
<!DOCTYPE svg PUBLIC "-//W3C//DTD SVG 20010904//EN"
 "http://www.w3.org/TR/2001/REC-SVG-20010904/DTD/svg10.dtd">
<svg version="1.0" xmlns="http://www.w3.org/2000/svg"
 width="192.000000pt" height="192.000000pt" viewBox="0 0 192.000000 192.000000"
 preserveAspectRatio="xMidYMid meet">
<metadata>
Created by potrace 1.14, written by Peter Selinger 2001-2017
</metadata>
<g transform="translate(0.000000,192.000000) scale(0.100000,-0.100000)"
fill="#000000" stroke="none">
<path d="M346 1739 c3 -5 -6 -9 -20 -9 -14 0 -38 -5 -53 -11 -74 -31 -93 -41
-93 -50 0 -6 -4 -8 -8 -5 -5 3 -15 -6 -22 -19 -7 -13 -18 -21 -24 -18 -6 3 -8
3 -4 -2 4 -4 3 -14 -3 -22 -6 -7 -8 -13 -5 -13 4 0 0 -7 -9 -16 -12 -12 -13
-19 -5 -24 8 -5 9 -10 2 -14 -25 -15 17 -106 67 -144 49 -38 121 -73 121 -58
0 6 6 4 13 -4 7 -9 23 -16 37 -15 14 0 28 -4 31 -9 4 -5 18 -10 32 -11 14 -2
35 -6 47 -10 17 -6 21 -4 14 6 -6 10 -3 10 11 -1 10 -8 19 -14 19 -12 1 3 22
-3 69 -20 31 -12 59 -48 55 -69 -3 -13 -47 -58 -58 -60 -26 -4 -43 -8 -47 -13
-3 -3 -15 -1 -26 5 -15 8 -18 8 -12 -1 6 -9 3 -9 -12 -1 -11 6 -23 7 -27 4 -3
-3 -6 -1 -6 6 0 7 -4 9 -10 6 -13 -8 -70 48 -75 74 -2 12 -7 25 -10 31 -7 11
-135 7 -155 -5 -9 -6 -11 -4 -5 6 7 11 6 12 -6 2 -12 -10 -18 -10 -27 -1 -8 8
-12 9 -12 1 0 -13 -18 -12 -39 1 -10 6 -12 5 -7 -2 4 -7 1 -12 -8 -12 -9 0
-16 -9 -16 -21 0 -13 4 -18 12 -13 7 4 8 3 4 -4 -16 -26 101 -181 124 -167 5
3 10 0 12 -5 2 -6 12 -13 23 -15 11 -2 20 -4 20 -5 0 -4 42 -11 67 -12 15 -1
25 -4 23 -8 -6 -9 27 -6 44 5 10 5 12 4 7 -4 -10 -15 215 -12 226 3 5 8 8 7 8
-1 0 -7 9 -10 23 -6 12 3 32 6 44 7 12 2 30 9 39 17 16 12 17 12 9 -1 -8 -13
-7 -13 8 -1 9 7 17 10 17 5 0 -4 6 1 14 12 8 10 19 19 25 19 6 0 11 4 10 8 0
5 8 16 18 25 24 22 57 97 49 111 -4 6 -4 11 1 11 8 0 8 54 0 93 -2 10 -11 27
-20 37 -9 11 -15 20 -12 20 3 0 -4 9 -14 19 -24 24 -111 75 -111 66 0 -4 -11
0 -25 9 -14 9 -25 14 -25 10 0 -4 -7 -1 -15 6 -12 10 -15 10 -15 -1 0 -11 -2
-11 -10 1 -5 8 -10 11 -10 6 0 -5 -6 -4 -12 1 -7 6 -20 10 -28 10 -15 1 -40 6
-90 18 -14 4 -32 7 -40 7 -8 0 -22 2 -30 5 -8 3 -22 7 -30 9 -14 3 -40 31 -40
44 0 15 40 51 49 45 6 -3 11 -2 11 3 0 13 33 10 42 -3 5 -6 8 -6 8 2 0 6 8 10
18 8 9 -2 17 -4 17 -5 0 -1 7 -3 16 -5 21 -4 70 -46 64 -55 -10 -16 28 -33 68
-31 23 2 62 3 87 4 25 1 51 6 58 10 7 5 12 4 12 -2 0 -8 22 -8 59 -2 2 1 -1 7
-7 14 -11 13 -12 17 -12 45 0 10 -9 28 -20 40 -11 12 -20 25 -20 29 0 14 -83
63 -106 63 -8 0 -14 4 -14 8 0 4 -15 9 -32 10 -18 2 -34 7 -36 12 -2 6 -10 6
-22 0 -13 -7 -21 -7 -25 0 -9 15 -185 13 -185 -2 0 -8 -3 -9 -8 -3 -9 12 -44
16 -36 4z"/>
<path d="M984 1666 c-10 -32 -10 -176 0 -179 5 -2 6 -9 2 -16 -12 -19 -13
-100 -1 -105 7 -2 6 -7 -1 -16 -7 -7 -9 -24 -4 -45 4 -19 6 -36 3 -39 -9 -9
-9 -96 1 -99 5 -2 6 -9 2 -16 -12 -19 -13 -100 -2 -104 5 -2 4 -12 -3 -25 -7
-14 -8 -22 -2 -22 6 0 8 -7 5 -15 -5 -13 8 -15 92 -13 l99 3 0 48 c-1 26 3 47
8 47 4 0 5 5 1 11 -11 18 -11 149 0 149 6 0 5 5 -2 12 -7 7 -8 17 -1 30 5 10
6 18 2 18 -5 0 -8 25 -8 55 0 30 5 55 10 55 6 0 11 -4 11 -10 1 -5 3 -12 4
-15 1 -3 4 -9 5 -15 1 -5 3 -11 5 -12 2 -4 7 -24 15 -62 3 -16 9 -34 13 -40 3
-6 8 -22 10 -36 2 -14 7 -27 13 -28 5 -2 7 -7 4 -12 -3 -5 0 -21 6 -37 14 -32
18 -48 21 -80 1 -13 8 -25 16 -28 7 -3 10 -10 7 -15 -4 -6 -1 -17 5 -25 9 -11
35 -15 99 -15 86 0 87 0 89 26 1 15 6 32 11 38 6 6 11 24 13 39 3 16 8 32 14
35 8 6 13 23 16 60 1 6 5 12 9 12 5 0 6 7 3 15 -4 8 -2 15 3 15 5 0 10 6 11
13 2 22 7 42 15 55 5 6 5 17 2 22 -3 6 -1 10 5 10 7 0 10 7 7 15 -4 8 -2 17 4
20 5 4 7 11 4 16 -4 5 1 9 11 9 14 0 15 3 3 18 -11 14 -11 15 1 5 15 -14 23
-43 12 -43 -4 0 -7 -84 -7 -188 l0 -187 99 -3 c65 -2 96 1 91 8 -3 5 -2 10 4
10 10 0 7 31 -4 50 -3 6 -2 10 3 10 11 0 9 80 -3 99 -6 11 -4 13 10 7 15 -5
16 -4 5 9 -7 8 -9 15 -5 15 4 0 2 6 -4 14 -7 8 -8 17 -3 19 10 7 8 80 -3 97
-6 10 -3 12 10 6 15 -5 16 -4 5 9 -7 8 -9 15 -5 15 4 0 2 6 -4 14 -7 8 -8 17
-3 20 10 6 8 48 -3 65 -3 6 -2 11 3 11 5 0 8 25 6 55 -1 40 1 53 9 48 7 -3 4
3 -6 14 -9 11 -15 22 -12 25 10 9 14 48 6 48 -4 0 -7 10 -7 22 1 23 0 23 -139
23 -149 1 -178 -2 -169 -16 3 -5 1 -9 -4 -9 -5 0 -9 -6 -10 -12 -2 -31 -14
-73 -24 -85 -6 -7 -8 -13 -5 -13 3 0 -1 -16 -9 -35 -8 -20 -12 -40 -9 -45 4
-6 2 -10 -3 -10 -9 0 -28 -65 -24 -82 1 -5 -2 -8 -7 -8 -4 0 -6 -11 -3 -25 2
-14 0 -25 -6 -25 -11 0 -25 27 -26 50 0 8 -3 17 -7 20 -5 4 -20 55 -34 113 -2
10 -11 31 -19 47 -10 21 -11 30 -2 34 7 3 7 5 -2 5 -7 1 -10 6 -7 11 3 6 1 10
-5 10 -7 0 -10 7 -6 15 3 8 -2 21 -10 29 -8 9 -13 19 -12 23 2 4 -66 8 -150 8
-142 0 -153 -1 -158 -19z"/>
<path d="M795 921 c-18 -5 -20 -14 -19 -81 0 -42 -4 -78 -10 -82 -7 -5 -6 -8
2 -8 7 0 10 -4 7 -10 -3 -5 -1 -10 6 -10 8 0 9 -3 0 -13 -6 -8 -8 -17 -4 -20
6 -6 -11 -11 -29 -8 -5 0 -8 -3 -8 -7 0 -4 -9 -8 -20 -8 -11 0 -20 3 -20 6 0
4 -10 6 -22 4 -13 -1 -27 -3 -31 -3 -5 -1 -5 -6 -2 -11 4 -6 1 -17 -5 -25 -10
-11 -10 -15 -1 -15 7 0 10 -4 6 -9 -6 -10 11 -24 32 -27 7 -1 15 2 19 7 9 14
46 11 38 -3 -5 -10 -4 -10 6 -1 22 20 38 -8 35 -60 -1 -30 2 -47 9 -47 7 0 8
-3 1 -8 -6 -4 -11 -25 -11 -47 0 -22 5 -43 11 -47 6 -5 5 -8 -4 -8 -11 0 -11
-3 -1 -15 12 -14 43 -16 56 -2 4 4 13 2 21 -4 7 -6 13 -10 14 -8 3 19 3 567
-1 567 -3 0 -7 1 -10 2 -13 5 -47 6 -65 1z"/>
<path d="M1525 887 c3 -25 0 -35 -7 -31 -7 5 -8 2 -2 -7 14 -22 15 -47 2 -55
-17 -11 -88 -12 -88 -2 0 5 -6 6 -12 1 -7 -4 -16 -8 -20 -8 -5 0 -8 -4 -7 -9
0 -5 -5 -13 -13 -17 -10 -7 -10 -9 0 -9 6 0 12 -5 12 -11 0 -5 -5 -7 -11 -4
-6 4 -5 -2 2 -13 11 -17 22 -20 75 -18 65 3 84 -9 61 -34 -7 -7 -7 -10 -2 -7
6 3 10 -12 11 -38 0 -26 -4 -41 -9 -38 -6 4 -7 1 -1 -8 5 -8 9 -17 9 -21 0 -3
4 -10 9 -15 5 -5 6 -2 2 7 -5 11 -3 10 6 -2 11 -12 18 -14 32 -6 10 6 16 6 13
1 -3 -5 3 -9 13 -9 12 0 17 6 15 18 -2 10 0 18 4 18 10 0 5 105 -5 121 -4 7
-3 9 3 6 11 -7 9 95 -3 114 -4 8 -3 9 4 5 14 -9 15 -5 3 27 -6 14 -7 28 -3 32
10 10 9 29 -3 40 -5 6 -29 11 -52 10 l-41 0 3 -38z"/>
<path d="M1193 901 c-5 -3 -8 -23 -8 -43 0 -21 -3 -38 -8 -38 -4 0 -5 -4 -2
-10 3 -5 2 -10 -2 -10 -5 0 -10 -9 -11 -20 -4 -42 -6 -49 -13 -47 -4 1 -6 0
-5 -3 0 -3 -9 -16 -21 -30 -13 -13 -23 -28 -23 -34 0 -5 -3 -7 -6 -3 -3 3 -15
-3 -27 -14 -11 -10 -27 -19 -34 -19 -8 0 -12 -4 -9 -9 3 -5 -9 -12 -27 -16
-17 -4 -26 -9 -19 -12 6 -2 10 -9 7 -13 -3 -5 5 -14 17 -21 13 -7 26 -17 30
-23 17 -25 188 100 172 126 -4 6 -3 8 4 4 5 -3 12 -1 14 5 3 8 9 6 20 -4 8 -9
18 -13 22 -10 3 4 6 -1 6 -10 0 -9 4 -17 9 -17 5 0 23 -13 39 -30 17 -16 38
-30 47 -30 10 0 13 -5 9 -12 -5 -8 -2 -9 9 -5 9 3 19 2 22 -3 7 -12 65 48 65
68 0 9 -3 12 -7 9 -3 -4 -12 -2 -20 4 -7 6 -13 8 -13 3 0 -5 -4 -4 -8 1 -12
16 -70 55 -83 55 -7 0 -10 3 -6 6 3 3 -5 16 -19 29 -13 12 -24 27 -24 34 0 6
-4 11 -9 11 -5 0 -8 11 -7 25 0 14 5 25 10 25 5 0 4 6 -3 13 -7 10 -7 17 0 24
6 6 8 20 5 31 -7 20 -20 23 -43 9 -7 -5 -13 -4 -13 1 0 10 -25 12 -37 3z"/>
<path d="M558 885 c-3 -6 -64 -10 -136 -9 -106 1 -129 -2 -125 -13 3 -7 -1
-21 -8 -30 -10 -12 -10 -15 -1 -9 8 5 12 1 12 -12 0 -16 8 -21 45 -24 25 -2
45 -1 45 2 0 3 33 4 74 2 l74 -4 -8 -28 c-4 -16 -6 -31 -2 -34 3 -3 0 -6 -7
-6 -7 0 -9 -4 -6 -10 3 -5 1 -10 -4 -10 -6 0 -10 -4 -9 -9 4 -10 -82 -111 -94
-111 -5 0 -16 -7 -25 -16 -9 -8 -22 -13 -29 -10 -8 3 -13 0 -11 -7 1 -7 -4
-11 -10 -10 -7 2 -13 -1 -13 -6 0 -5 -7 -12 -16 -15 -10 -4 -13 -2 -8 6 5 7 3
8 -7 2 -8 -5 -18 -9 -24 -9 -18 0 -10 -39 13 -62 23 -23 52 -31 52 -14 0 6 9
8 20 6 11 -2 18 0 15 6 -4 5 1 9 10 9 9 0 32 12 51 26 19 15 34 22 34 18 1 -5
7 2 15 16 8 14 14 21 15 17 0 -11 70 63 70 75 0 5 5 6 12 2 6 -4 8 -3 4 4 -3
6 0 17 8 25 8 8 12 17 9 21 -4 3 -1 6 5 6 6 0 9 7 5 17 -4 11 -3 14 5 9 7 -4
12 -2 12 3 0 21 2 26 13 40 10 12 9 13 -3 6 -13 -7 -13 -6 0 11 9 10 15 35 15
54 0 19 4 38 9 41 18 14 -6 28 -44 26 -22 -2 -41 2 -43 7 -2 6 -6 6 -9 1z"/>
<path d="M1127 487 c-24 -36 -3 -65 46 -62 20 2 40 -1 43 -6 3 -5 11 -6 17 -2
17 10 137 11 143 1 3 -5 11 -5 17 -1 21 14 126 9 132 -5 5 -14 -24 -50 -34
-43 -20 12 -51 19 -56 11 -6 -9 -37 -6 -57 6 -8 5 -9 2 -4 -11 5 -13 3 -15 -6
-8 -7 6 -22 9 -33 7 -11 -1 -23 2 -27 9 -4 7 -8 7 -8 2 0 -12 -79 -13 -97 -2
-6 4 -13 1 -16 -5 -3 -10 -7 -10 -18 -1 -11 9 -19 7 -37 -12 -14 -15 -19 -26
-12 -30 12 -8 9 -37 -5 -47 -6 -5 -5 -8 2 -8 7 0 10 -7 6 -17 -5 -12 -3 -14 8
-9 8 4 5 0 -5 -8 -11 -9 -15 -16 -10 -16 5 0 10 -9 11 -20 1 -11 -3 -20 -8
-20 -6 0 -4 -7 4 -15 13 -12 58 -15 266 -15 l251 0 0 33 c0 17 -4 37 -8 43 -5
7 -71 11 -200 10 -175 -1 -195 1 -203 17 -7 11 -6 17 1 17 6 0 9 4 6 8 -2 4
11 7 30 7 19 0 34 -4 34 -10 0 -7 3 -7 8 0 4 6 40 10 80 10 41 0 72 -4 72 -10
0 -6 3 -6 8 0 9 14 65 13 74 0 5 -6 8 -6 8 1 0 6 15 10 34 9 22 -2 37 2 40 11
3 8 0 14 -7 14 -8 0 -8 3 -2 8 12 8 12 92 1 111 -4 6 -3 11 3 11 5 0 9 9 8 20
-2 25 -33 36 -53 19 -12 -10 -13 -9 -9 3 5 12 0 15 -20 12 -15 -1 -29 -5 -32
-8 -4 -3 -12 -1 -20 5 -10 9 -13 8 -13 -2 0 -11 -2 -11 -10 1 -9 13 -10 13
-10 0 0 -13 -2 -13 -9 -1 -7 10 -14 12 -23 5 -16 -11 -38 -11 -55 -1 -8 5 -13
3 -13 -5 0 -9 -3 -9 -10 2 -9 13 -10 13 -10 0 0 -13 -2 -13 -9 -1 -8 12 -12
12 -24 2 -10 -8 -17 -9 -22 -1 -4 7 -13 7 -27 -1 -15 -8 -19 -8 -14 0 8 12 -6
15 -18 4 -10 -10 -56 -12 -50 -1 13 20 -35 6 -49 -15z"/>
<path d="M388 399 c-7 -4 -9 -11 -6 -15 4 -4 3 -15 -2 -25 -7 -12 -7 -20 0
-24 7 -4 6 -13 -1 -27 -8 -15 -8 -19 0 -14 6 4 11 2 11 -3 0 -6 -5 -11 -11
-11 -5 0 -7 -5 -4 -10 4 -6 10 -8 15 -5 5 3 3 -6 -5 -21 -12 -23 -12 -29 2
-42 14 -14 14 -17 -1 -28 -14 -10 -4 -12 51 -12 37 0 74 5 82 12 12 8 13 8 7
-2 -8 -14 19 -12 43 2 9 6 12 5 8 -1 -9 -14 44 -14 62 1 12 8 13 8 7 -2 -8
-14 19 -12 43 2 9 6 12 5 8 -1 -7 -10 177 -13 187 -3 2 3 6 19 9 37 5 34 -15
64 -28 42 -6 -8 -10 -7 -16 2 -8 12 -11 11 -19 -1 -5 -8 -10 -10 -10 -5 0 11
-180 12 -198 1 -6 -3 -13 0 -15 6 -4 10 -8 9 -16 -2 -6 -8 -11 -10 -11 -5 0 6
-13 10 -30 10 -16 0 -30 -3 -30 -7 0 -5 -8 0 -18 10 -12 11 -14 20 -8 24 7 5
6 8 -2 8 -16 0 -13 51 3 62 6 5 6 8 -2 8 -6 0 -10 9 -8 20 2 11 0 18 -6 15 -5
-4 -9 -2 -9 3 0 11 -64 12 -82 1z"/>
</g>
</svg>
